<svg xmlns="http://www.w3.org/2000/svg" width="43.03" height="54.3" viewBox="0 0 43.03 54.3">
    <path data-name="빼기 18" d="M-11144.265-14496.2h-35.078a1.414 1.414 0 0 1-1.186-.7 1.9 1.9 0 0 1-.2-1.515l2.922-10.081a1.5 1.5 0 0 1 1.387-1.149h2.923v-15.119c0-7.41 5.245-13.438 11.693-13.438s11.69 6.028 11.69 13.438v15.119h2.922a1.49 1.49 0 0 1 1.387 1.149l2.927 10.081a1.9 1.9 0 0 1-.205 1.515 1.41 1.41 0 0 1-1.182.7zm-18.721-34.785c-2.759 0-5 2.991-5 6.669v13.344h5v-20.013z" transform="translate(11184 14550)" style="stroke:transparent;stroke-miterlimit:10;fill:#fff"/>
    <path d="M1.5 8.006A1.554 1.554 0 0 0 3 6.4V1.6A1.554 1.554 0 0 0 1.5 0 1.554 1.554 0 0 0 0 1.6v4.8a1.554 1.554 0 0 0 1.5 1.606z" transform="translate(20.014)" style="fill:#fff"/>
    <path data-name="Path" d="M6.4 0H1.6A1.835 1.835 0 0 0 0 2a1.835 1.835 0 0 0 1.6 2h4.8A1.835 1.835 0 0 0 8 2a1.835 1.835 0 0 0-1.6-2z" transform="translate(35.024 23.016)" style="fill:#fff"/>
    <path data-name="Path" d="M8.006 2A1.835 1.835 0 0 0 6.4 0H1.6A1.835 1.835 0 0 0 0 2a1.835 1.835 0 0 0 1.6 2h4.8a1.835 1.835 0 0 0 1.606-2z" transform="translate(0 23.016)" style="fill:#fff"/>
    <path data-name="Path" d="M1.214 6a1.117 1.117 0 0 0 .858-.427l2.575-3.09a1.669 1.669 0 0 0 0-2.06 1.077 1.077 0 0 0-1.717 0L.356 3.517a1.669 1.669 0 0 0 0 2.06A1.117 1.117 0 0 0 1.214 6z" transform="translate(32.022 7.005)" style="fill:#fff"/>
    <path data-name="Path" d="M2.931 5.577A1.117 1.117 0 0 0 3.789 6a1.117 1.117 0 0 0 .858-.427 1.669 1.669 0 0 0 0-2.06L2.073.427a1.077 1.077 0 0 0-1.717 0 1.669 1.669 0 0 0 0 2.06l2.575 3.09z" transform="translate(6.004 7.005)" style="fill:#fff"/>
</svg>
