<svg xmlns="http://www.w3.org/2000/svg" width="45.029" height="47.111" viewBox="0 0 45.029 47.111">
    <path d="M0 0v29.378a1.988 1.988 0 0 0 .72 1.591l2.2 1.734a1.389 1.389 0 0 0 1.465.193 1.828 1.828 0 0 0 .977-1.309L8.006 19" transform="translate(27.518 12.558)" style="fill:none;stroke:#fff;stroke-linecap:round;stroke-linejoin:round;stroke-miterlimit:10;stroke-width:3px"/>
    <path data-name="Path" d="M33.623 29.351c4.642 0 8.406-4.18 8.406-9.337s-3.763-9.337-8.406-9.337h-8.405s-11.453 0-22.465-10.248A1.548 1.548 0 0 0 .971.175 1.89 1.89 0 0 0 0 1.853v36.322a1.89 1.89 0 0 0 .971 1.678 1.548 1.548 0 0 0 1.782-.253c11.012-10.249 22.465-10.249 22.465-10.249z" transform="translate(1.5 1.55)" style="fill:none;stroke:#fff;stroke-linecap:round;stroke-linejoin:round;stroke-miterlimit:10;stroke-width:3px"/>
</svg>
