<svg xmlns="http://www.w3.org/2000/svg" width="30.962" height="42.027" viewBox="0 0 30.962 42.027">
    <path d="M0 0a16.837 16.837 0 0 1 3.107 10.007A16.837 16.837 0 0 1 0 20.014" transform="translate(26.355 11.507)" style="fill:none;stroke:#fff;stroke-linecap:round;stroke-linejoin:round;stroke-miterlimit:10;stroke-width:3px"/>
    <path data-name="Path" d="M7.34 27.644H1.049c-.58 0-1.049-.728-1.049-1.626V13.009c0-.9.469-1.626 1.049-1.626H7.34L16.777 0v39.027z" style="fill:none;stroke:#fff;stroke-linecap:round;stroke-linejoin:round;stroke-miterlimit:10;stroke-width:3px" transform="translate(1.5 1.5)"/>
    <path data-name="Path" d="M.25 0v15.01" transform="translate(8.862 13.508)" style="fill:none;stroke:#fff;stroke-linecap:round;stroke-linejoin:round;stroke-miterlimit:10;stroke-width:3px"/>
    <path data-name="Path" d="M0 0a8.244 8.244 0 0 1 1.243 4.5A8.244 8.244 0 0 1 0 9.006" transform="translate(22.627 16.51)" style="fill:none;stroke:#fff;stroke-linecap:round;stroke-linejoin:round;stroke-miterlimit:10;stroke-width:3px"/>
</svg>
